<svg width="19" height="22" viewBox="0 0 19 22" fill="none" xmlns="http://www.w3.org/2000/svg">
<path d="M9.5 10C10.39 10 11.26 9.73608 12.0001 9.24161C12.7401 8.74715 13.3169 8.04434 13.6575 7.22208C13.998 6.39981 14.0872 5.49501 13.9135 4.62209C13.7399 3.74918 13.3113 2.94736 12.682 2.31802C12.0526 1.68868 11.2508 1.2601 10.3779 1.08647C9.50499 0.912835 8.60019 1.00195 7.77792 1.34254C6.95566 1.68314 6.25285 2.25991 5.75839 2.99994C5.26392 3.73996 5 4.60999 5 5.5C5 6.69347 5.47411 7.83807 6.31802 8.68198C7.16193 9.52589 8.30652 10 9.5 10ZM9.5 2.28572C10.1357 2.28572 10.7572 2.47423 11.2858 2.82742C11.8143 3.18061 12.2263 3.68261 12.4696 4.26995C12.7129 4.85728 12.7765 5.50357 12.6525 6.12708C12.5285 6.75059 12.2224 7.32332 11.7728 7.77284C11.3233 8.22237 10.7506 8.5285 10.1271 8.65252C9.50356 8.77655 8.85728 8.71289 8.26994 8.46961C7.68261 8.22633 7.18061 7.81435 6.82742 7.28576C6.47423 6.75718 6.28571 6.13573 6.28571 5.5C6.28571 4.64752 6.62436 3.82995 7.22716 3.22716C7.82995 2.62436 8.64752 2.28572 9.5 2.28572Z" fill="white" stroke="white" stroke-width="0.5"/>
<path d="M17.6534 15.4507C16.6049 14.3608 15.3413 13.4926 13.9399 12.8993C12.5386 12.306 11.0289 12 9.50325 12C7.97756 12 6.4679 12.306 5.06656 12.8993C3.66522 13.4926 2.40164 14.3608 1.35308 15.4507C1.12574 15.6895 0.999485 16.0045 1 16.3317V19.714C1 20.055 1.13778 20.3821 1.38301 20.6233C1.62825 20.8645 1.96087 21 2.30769 21H16.6923C17.0391 21 17.3717 20.8645 17.617 20.6233C17.8622 20.3821 18 20.055 18 19.714V16.3317C18.0023 16.0054 17.8784 15.6905 17.6534 15.4507ZM16.6923 19.714H2.30769V16.3252C3.23434 15.3656 4.34984 14.6015 5.5863 14.0793C6.82277 13.5572 8.15434 13.2879 9.49999 13.2879C10.8456 13.2879 12.1772 13.5572 13.4137 14.0793C14.6501 14.6015 15.7656 15.3656 16.6923 16.3252V19.714Z" fill="white" stroke="white" stroke-width="0.5"/>
</svg>
