<svg width="18" height="14" viewBox="0 0 18 14" fill="none" xmlns="http://www.w3.org/2000/svg">
<path d="M8.99978 10.7502C7.02452 10.7502 5.42556 9.22132 5.27843 7.28382L2.54666 5.17263C2.18754 5.62315 1.85707 6.09945 1.59041 6.62028C1.53083 6.73812 1.4998 6.86832 1.4998 7.00036C1.4998 7.1324 1.53083 7.2626 1.59041 7.38044C3.00265 10.1359 5.79848 12.0002 8.99978 12.0002C9.70056 12.0002 10.3766 11.8961 11.0282 11.7278L9.67686 10.6823C9.45369 10.7254 9.22707 10.7481 8.99978 10.7502ZM17.1722 12.2633L14.2933 10.0383C15.1678 9.30125 15.887 8.3977 16.4092 7.38018C16.4687 7.26234 16.4998 7.13214 16.4998 7.0001C16.4998 6.86806 16.4687 6.73786 16.4092 6.62002C14.9969 3.86455 12.2011 2.00023 8.99978 2.00023C7.65903 2.00186 6.34005 2.33939 5.16332 2.982L1.8503 0.421325C1.8071 0.387707 1.7577 0.362932 1.70491 0.348415C1.65213 0.333898 1.59701 0.329924 1.54269 0.336719C1.48837 0.343515 1.43593 0.360948 1.38835 0.388021C1.34077 0.415094 1.29899 0.451277 1.26541 0.494502L0.754208 1.15257C0.686395 1.23981 0.656009 1.35041 0.669732 1.46005C0.683454 1.56968 0.740163 1.66938 0.827385 1.73721L16.1493 13.5791C16.1925 13.6128 16.2419 13.6375 16.2946 13.652C16.3474 13.6666 16.4026 13.6705 16.4569 13.6637C16.5112 13.6569 16.5636 13.6395 16.6112 13.6124C16.6588 13.5854 16.7006 13.5492 16.7342 13.506L17.2456 12.8479C17.3134 12.7606 17.3437 12.65 17.33 12.5404C17.3162 12.4307 17.2594 12.331 17.1722 12.2633ZM12.3878 8.56534L11.3644 7.77419C11.4506 7.52509 11.4963 7.26379 11.4998 7.00023C11.5049 6.61436 11.4194 6.23268 11.2502 5.88584C11.081 5.539 10.8328 5.23668 10.5256 5.00315C10.2184 4.76963 9.86067 4.61141 9.48121 4.5412C9.10174 4.471 8.7111 4.49077 8.34067 4.59893C8.4977 4.81172 8.58265 5.06911 8.58311 5.33356C8.57923 5.42157 8.56578 5.50889 8.54301 5.59398L6.62608 4.11247C7.29196 3.55601 8.132 3.25087 8.99978 3.25023C9.49231 3.24996 9.98007 3.34677 10.4352 3.53513C10.8903 3.72348 11.3038 3.9997 11.652 4.34797C12.0003 4.69624 12.2765 5.10975 12.4649 5.56484C12.6532 6.01994 12.7501 6.5077 12.7498 7.00023C12.7498 7.56351 12.612 8.08851 12.3878 8.56559V8.56534Z" fill="#9FA2B4"/>
</svg>
