<svg width="19" height="19" viewBox="0 0 19 19" fill="none" xmlns="http://www.w3.org/2000/svg">
<path d="M6.681 10.0717L14.0586 18.0638C14.317 18.3492 14.6304 18.5793 14.9802 18.7403C15.3299 18.9012 15.7086 18.9895 16.0934 19H16.167C16.5443 18.9996 16.9177 18.9239 17.2653 18.7774C17.613 18.6308 17.9279 18.4164 18.1917 18.1466C18.4554 17.8768 18.6627 17.5571 18.8014 17.2062C18.9401 16.8553 19.0074 16.4802 18.9994 16.103C18.9904 15.7174 18.9035 15.3377 18.7439 14.9867C18.5843 14.6356 18.3553 14.3206 18.0707 14.0604L10.0774 6.68265C10.3743 5.72478 10.3854 4.70111 10.1094 3.73702C9.83347 2.77292 9.28242 1.91023 8.52377 1.2546C7.76511 0.598962 6.83177 0.178837 5.83803 0.0456678C4.8443 -0.0875014 3.83331 0.0720654 2.92886 0.504829C2.82326 0.556208 2.73149 0.632097 2.66118 0.726167C2.59087 0.820236 2.54407 0.929758 2.52468 1.0456C2.5053 1.16143 2.51389 1.28023 2.54973 1.39207C2.58558 1.50392 2.64765 1.60556 2.73076 1.68854L5.15437 4.10678L4.11231 5.1498L1.68649 2.72861C1.60317 2.64582 1.50127 2.58416 1.38928 2.54877C1.27729 2.51339 1.15846 2.50531 1.04272 2.5252C0.92697 2.5451 0.817658 2.59239 0.723905 2.66314C0.630151 2.73389 0.554675 2.82605 0.503774 2.93191C0.0714767 3.83624 -0.0876274 4.84708 0.0459653 5.84052C0.179558 6.83395 0.600043 7.76682 1.25587 8.52476C1.9117 9.2827 2.77438 9.83277 3.73816 10.1076C4.70194 10.3823 5.72493 10.3699 6.68173 10.0717H6.681ZM1.5068 4.63124L3.59239 6.71212C3.73046 6.84998 3.91758 6.92741 4.11268 6.92741C4.30777 6.92741 4.4949 6.84998 4.63297 6.71212L6.71708 4.62755C6.78555 4.55914 6.83987 4.4779 6.87693 4.38848C6.91399 4.29906 6.93307 4.20321 6.93307 4.10641C6.93307 4.00961 6.91399 3.91376 6.87693 3.82434C6.83987 3.73492 6.78555 3.65368 6.71708 3.58527L4.62781 1.50292C5.2751 1.40971 5.93554 1.49061 6.54121 1.73731C7.14688 1.984 7.67594 2.38758 8.07399 2.90656C8.47205 3.42554 8.72473 4.04119 8.80608 4.69021C8.88742 5.33924 8.79448 5.99822 8.53681 6.59942C8.47682 6.73938 8.46168 6.8945 8.49346 7.04343C8.52525 7.19236 8.6024 7.32777 8.7143 7.43103L17.0787 15.1476C17.2175 15.2727 17.3291 15.425 17.4067 15.5951C17.4842 15.7651 17.526 15.9493 17.5294 16.1361C17.5342 16.3202 17.5012 16.5033 17.4324 16.6741C17.3637 16.8449 17.2606 16.9997 17.1295 17.129C16.9984 17.2584 16.8426 17.36 16.6715 17.428C16.5003 17.4959 16.3173 17.5288 16.1331 17.5246C15.9465 17.5204 15.7627 17.4777 15.5933 17.3993C15.4239 17.3208 15.2725 17.2083 15.1485 17.0686L7.42627 8.71124C7.32283 8.59913 7.18714 8.52191 7.03795 8.49024C6.88875 8.45858 6.7334 8.47402 6.59336 8.53445C5.99303 8.79052 5.33545 8.88239 4.68795 8.80066C4.04045 8.71894 3.42629 8.46655 2.90839 8.06934C2.39048 7.67213 1.98743 7.14438 1.7405 6.54012C1.49357 5.93587 1.41165 5.27683 1.50312 4.6305L1.5068 4.63124Z" fill="white"/>
</svg>
