<svg width="24" height="24" viewBox="0 0 24 24" fill="none" xmlns="http://www.w3.org/2000/svg">
<g clip-path="url(#clip0_44_211)">
<path d="M11.7085 11.709C13.0202 11.709 14.0835 10.6457 14.0835 9.33398C14.0835 8.02231 13.0202 6.95898 11.7085 6.95898C10.3968 6.95898 9.3335 8.02231 9.3335 9.33398C9.3335 10.6457 10.3968 11.709 11.7085 11.709Z" fill="white"/>
<path d="M11.7081 11.709C9.66778 11.709 8.01367 13.3629 8.01367 15.4034H15.4025C15.4025 13.3629 13.7484 11.709 11.7081 11.709Z" fill="white"/>
<path d="M21.7681 20.6483L18.398 17.2782C19.6577 15.7675 20.4167 13.8255 20.4167 11.7094C20.4167 6.90766 16.5101 3.0011 11.7083 3.0011C6.90656 3.0011 3 6.9076 3 11.7094C3 16.5113 6.90656 20.4178 11.7083 20.4178C13.8251 20.4178 15.7677 19.6582 17.2786 18.3979L20.6486 21.7679C20.8032 21.9225 21.0058 21.9998 21.2083 21.9998C21.4109 21.9998 21.6136 21.9225 21.7681 21.7679C22.0773 21.4587 22.0773 20.9575 21.7681 20.6483ZM4.58333 11.7094C4.58333 7.78071 7.77961 4.58443 11.7083 4.58443C15.6371 4.58443 18.8333 7.78071 18.8333 11.7094C18.8333 15.6382 15.6371 18.8344 11.7083 18.8344C7.77961 18.8344 4.58333 15.6382 4.58333 11.7094Z" fill="white"/>
</g>
<defs>
<clipPath id="clip0_44_211">
<rect width="19" height="19" fill="white" transform="translate(3 3)"/>
</clipPath>
</defs>
</svg>
