<svg width="19" height="19" viewBox="0 0 19 19" fill="none" xmlns="http://www.w3.org/2000/svg">
<path d="M18.1971 17.3696H17.3517V3.84197L18.3988 1.06896C18.5384 0.731547 18.4531 0.0838647 17.6736 0.0218114H12.1043C11.8638 0.0024197 11.1231 0.28166 11.379 1.06896L12.4262 3.84197V8.73643H10.3241C10.2388 6.10692 8.0553 3.97383 5.4064 3.97383C2.7032 3.97383 0.484792 6.19224 0.484792 8.89544V17.4355C0.201673 17.5596 0 17.8466 0 18.1724C0 18.6145 0.364563 18.9791 0.806694 18.9791H18.1545C18.5966 18.9791 19 18.6145 19 18.1724C19.0038 17.7303 18.6393 17.3696 18.1971 17.3696ZM10.328 16.1169H12.4262V17.3696H10.328V16.1169ZM14.0396 4.57889H15.7732V17.3696H14.0396V4.57889ZM16.5023 1.59254L15.9943 2.96547H13.7448L13.2368 1.59254H16.5023ZM12.4262 14.5035H10.328V10.3459H12.4262V14.5035ZM5.4064 5.58726C7.26412 5.58726 8.7534 7.08042 8.7534 8.93426V17.3658H2.0594V8.93426C2.0594 7.08042 3.54868 5.58726 5.4064 5.58726Z" fill="white"/>
</svg>
