<svg width="18" height="18" viewBox="0 0 18 18" fill="none" xmlns="http://www.w3.org/2000/svg">
<path d="M4.0095 14.7692L0 18V0.923077C0 0.678262 0.0948211 0.443473 0.263604 0.270363C0.432387 0.0972524 0.661305 0 0.9 0H17.1C17.3387 0 17.5676 0.0972524 17.7364 0.270363C17.9052 0.443473 18 0.678262 18 0.923077V13.8462C18 14.091 17.9052 14.3258 17.7364 14.4989C17.5676 14.672 17.3387 14.7692 17.1 14.7692H4.0095ZM1.8 14.2015L3.3867 12.9231H16.2V1.84615H1.8V14.2015ZM8.1 9.23077H9.9V11.0769H8.1V9.23077ZM8.1 3.69231H9.9V8.30769H8.1V3.69231Z" fill="white"/>
</svg>
