<svg width="22" height="28" viewBox="0 0 22 28" fill="none" xmlns="http://www.w3.org/2000/svg">
<path fill-rule="evenodd" clip-rule="evenodd" d="M3.125 10.5C2.89294 10.5 2.67038 10.5922 2.50628 10.7563C2.34219 10.9204 2.25 11.1429 2.25 11.375V25.375C2.25 25.6071 2.34219 25.8296 2.50628 25.9937C2.67038 26.1578 2.89294 26.25 3.125 26.25H18.875C19.1071 26.25 19.3296 26.1578 19.4937 25.9937C19.6578 25.8296 19.75 25.6071 19.75 25.375V11.375C19.75 11.1429 19.6578 10.9204 19.4937 10.7563C19.3296 10.5922 19.1071 10.5 18.875 10.5H15.375C15.1429 10.5 14.9204 10.4078 14.7563 10.2437C14.5922 10.0796 14.5 9.85706 14.5 9.625C14.5 9.39294 14.5922 9.17038 14.7563 9.00628C14.9204 8.84219 15.1429 8.75 15.375 8.75H18.875C19.5712 8.75 20.2389 9.02656 20.7312 9.51884C21.2234 10.0111 21.5 10.6788 21.5 11.375V25.375C21.5 26.0712 21.2234 26.7389 20.7312 27.2312C20.2389 27.7234 19.5712 28 18.875 28H3.125C2.42881 28 1.76113 27.7234 1.26884 27.2312C0.776562 26.7389 0.5 26.0712 0.5 25.375V11.375C0.5 10.6788 0.776562 10.0111 1.26884 9.51884C1.76113 9.02656 2.42881 8.75 3.125 8.75H6.625C6.85706 8.75 7.07962 8.84219 7.24372 9.00628C7.40781 9.17038 7.5 9.39294 7.5 9.625C7.5 9.85706 7.40781 10.0796 7.24372 10.2437C7.07962 10.4078 6.85706 10.5 6.625 10.5H3.125Z" fill="white"/>
<path fill-rule="evenodd" clip-rule="evenodd" d="M10.3806 0.255355C10.4619 0.173869 10.5585 0.10922 10.6648 0.0651082C10.7711 0.0209969 10.885 -0.00170898 11.0001 -0.00170898C11.1152 -0.00170898 11.2292 0.0209969 11.3355 0.0651082C11.4418 0.10922 11.5383 0.173869 11.6196 0.255355L16.8696 5.50536C17.0339 5.66966 17.1262 5.8925 17.1262 6.12486C17.1262 6.35721 17.0339 6.58005 16.8696 6.74436C16.7053 6.90866 16.4825 7.00096 16.2501 7.00096C16.0178 7.00096 15.7949 6.90866 15.6306 6.74436L11.8751 2.98711V18.3749C11.8751 18.6069 11.7829 18.8295 11.6188 18.9936C11.4548 19.1577 11.2322 19.2499 11.0001 19.2499C10.7681 19.2499 10.5455 19.1577 10.3814 18.9936C10.2173 18.8295 10.1251 18.6069 10.1251 18.3749V2.98711L6.36963 6.74436C6.28828 6.82571 6.19169 6.89024 6.0854 6.93427C5.97911 6.9783 5.86518 7.00096 5.75013 7.00096C5.51777 7.00096 5.29493 6.90866 5.13063 6.74436C5.04928 6.663 4.98474 6.56642 4.94071 6.46013C4.89668 6.35383 4.87402 6.23991 4.87402 6.12486C4.87402 5.8925 4.96633 5.66966 5.13063 5.50536L10.3806 0.255355Z" fill="white"/>
</svg>
