<svg width="20" height="20" viewBox="0 0 20 20" fill="none" xmlns="http://www.w3.org/2000/svg">
<path d="M19.9342 8.47047L17.4342 3.47047C17.3283 3.25867 17.1119 3.12504 16.8751 3.12504H14.375V1.24996C14.375 0.904805 14.0952 0.625 13.75 0.625H6.24998C5.90482 0.625 5.62498 0.904805 5.62498 1.24996V3.125H3.12498C2.88814 3.125 2.67177 3.25863 2.56588 3.47043L0.0658768 8.47043C-0.0308811 8.66422 -0.0204904 8.89434 0.0933377 9.07863C0.207166 9.2627 0.408299 9.375 0.624978 9.375H1.87502V18.75C1.87502 19.0952 2.15482 19.375 2.49998 19.375H10.625H15H17.5C17.8452 19.375 18.125 19.0952 18.125 18.75V9.375H19.375C19.5917 9.375 19.7928 9.2627 19.9066 9.07867C20.0205 8.89434 20.0309 8.66422 19.9342 8.47047ZM6.87502 1.875H13.125V3.125H6.87502V1.875ZM12.012 4.375L12.9495 8.125H7.05056L7.98806 4.375H12.012ZM3.51135 4.375H6.25002H6.69947L5.76197 8.125H2.49998H1.63635L3.51135 4.375ZM11.25 18.125V12.5H14.375V18.125H11.25ZM16.875 18.125H15.625V11.875C15.625 11.5298 15.3452 11.25 15.0001 11.25H10.625C10.2799 11.25 10 11.5298 10 11.875V18.125H3.12502V9.375H16.875V18.125ZM17.5001 8.125H14.2381L13.3006 4.375H13.75H16.4887L18.3637 8.125H17.5001Z" fill="#F49613"/>
</svg>
