<svg width="19" height="19" viewBox="0 0 19 19" fill="none" xmlns="http://www.w3.org/2000/svg">
<path d="M17.2042 2.91142H13.8885V2.06403C13.8885 1.62091 13.5231 1.25552 13.08 1.25552H10.3318V0.808511C10.3318 0.365385 9.96644 0 9.52331 0C9.08019 0 8.7148 0.365385 8.7148 0.808511V1.25164H5.96275C5.51963 1.25164 5.15424 1.61702 5.15424 2.06015V2.90753H1.79582C1.35269 2.90753 0.987305 3.27291 0.987305 3.71604V18.1915C0.987305 18.6346 1.35269 19 1.79582 19H17.243C17.6473 19 18.0127 18.6346 18.0127 18.1915V3.71993C18.0127 3.2768 17.6473 2.91142 17.2042 2.91142ZM6.77127 2.82979H12.3103V4.61007H6.77127V2.82979ZM16.4345 17.4296H2.60433V4.52844H5.15036V5.37582C5.15036 5.81894 5.51574 6.18433 5.95887 6.18433H13.0761C13.5192 6.18433 13.8846 5.81894 13.8846 5.41469V4.52844H16.4306V17.4296H16.4345Z" fill="white"/>
</svg>
