<svg width="21" height="17" viewBox="0 0 21 17" fill="none" xmlns="http://www.w3.org/2000/svg">
<path d="M19.7426 7.35523C19.1861 6.92833 18.0918 4.67487 18.0792 4.64909C17.7782 4.06792 17.0008 3.59511 16.3463 3.59511H14.1397V1.2794C14.1397 0.824875 13.7699 0.455078 13.3154 0.455078H0.824325C0.369797 0.455078 0 0.824875 0 1.2794V13.3789C0 13.7367 0.309297 14.0279 0.689485 14.0279H1.13032C1.25627 15.4368 2.44295 16.545 3.88427 16.545C5.12295 16.545 6.17404 15.7266 6.52506 14.6022C6.87607 15.7266 7.92711 16.545 9.16579 16.545C10.6071 16.545 11.7938 15.4368 11.9198 14.0279H13.9016C14.0276 15.4368 15.2143 16.545 16.6556 16.545C18.0969 16.545 19.2836 15.4368 19.4096 14.0279H19.7639C20.4455 14.0279 21 13.4734 21 12.7919V10.6808C21 8.5502 20.1207 7.64539 19.7426 7.35523ZM3.88427 14.8027C3.32018 14.8027 2.86131 14.3438 2.86131 13.7798C2.86131 13.2157 3.32023 12.7567 3.88427 12.7567C4.44851 12.7567 4.90758 13.2156 4.90758 13.7798C4.90758 14.3438 4.44851 14.8027 3.88427 14.8027ZM9.16579 14.8027C8.60171 14.8027 8.14283 14.3438 8.14283 13.7798C8.14283 13.2157 8.60176 12.7567 9.16579 12.7567C9.73003 12.7567 10.1891 13.2156 10.1891 13.7798C10.1891 14.3438 9.73003 14.8027 9.16579 14.8027ZM10.8328 9.08781H3.30689V3.10821H10.8328V9.08781ZM16.6556 14.8027C16.0915 14.8027 15.6326 14.3438 15.6326 13.7798C15.6326 13.2157 16.0915 12.7567 16.6556 12.7567C17.2198 12.7567 17.6789 13.2156 17.6789 13.7798C17.6789 14.3438 17.2198 14.8027 16.6556 14.8027ZM18.616 8.4207C18.5958 8.45413 18.5362 8.46872 18.4451 8.46282L14.1397 8.46257V4.61737H15.9514C16.446 4.61737 17.0562 4.98847 17.2827 5.42556L18.1197 7.12032C18.1455 7.17008 18.172 7.22069 18.1987 7.2718C18.4043 7.66432 18.7148 8.25754 18.616 8.4207Z" fill="white"/>
</svg>
