<svg width="52" height="51" viewBox="0 0 52 51" fill="none" xmlns="http://www.w3.org/2000/svg">
<path d="M51.6823 13.8625C51.359 13.4045 50.9251 13.1755 50.3807 13.1755H15.7216L13.0673 4.16837C12.8291 3.35416 12.5058 2.65869 12.0975 2.08196C11.6891 1.50523 11.2553 1.09813 10.7959 0.860654C10.3365 0.623178 9.93661 0.462033 9.59632 0.37722C9.25602 0.292407 8.91573 0.25 8.57543 0.25H1.58237C1.13999 0.25 0.765664 0.402664 0.459398 0.707991C0.153133 1.01332 0 1.40346 0 1.87841C0 2.14981 0.068059 2.41273 0.204177 2.66717C0.340295 2.92161 0.535965 3.11668 0.791186 3.25238C1.04641 3.38809 1.31014 3.45594 1.58237 3.45594H8.57543C8.71155 3.45594 8.83916 3.4729 8.95826 3.50682C9.07737 3.54075 9.23901 3.68493 9.44318 3.93937C9.64736 4.19381 9.81751 4.57547 9.95363 5.08435L18.9885 38.1615C19.0565 38.365 19.1671 38.5601 19.3202 38.7467C19.4734 38.9333 19.652 39.0774 19.8562 39.1792C20.0604 39.281 20.2816 39.3319 20.5198 39.3319H42.5709C42.9112 39.3319 43.226 39.2301 43.5152 39.0266C43.8045 38.823 44.0001 38.5686 44.1022 38.2632L51.912 15.3637C52.0821 14.8209 52.0056 14.3205 51.6823 13.8625ZM41.4479 36.0751H21.7959L16.5894 16.4323H48.0326L41.4479 36.0751ZM38.2321 42.5887C37.1092 42.5887 36.1478 42.9873 35.3481 43.7846C34.5484 44.5818 34.1486 45.5402 34.1486 46.6597C34.1486 47.7793 34.5484 48.7377 35.3481 49.5349C36.1478 50.3321 37.1092 50.7308 38.2321 50.7308C39.3551 50.7308 40.3164 50.3321 41.1161 49.5349C41.9158 48.7377 42.3157 47.7793 42.3157 46.6597C42.3157 45.5402 41.9158 44.5818 41.1161 43.7846C40.3164 42.9873 39.3551 42.5887 38.2321 42.5887ZM23.5314 42.5887C22.7827 42.5887 22.0936 42.7753 21.4641 43.1485C20.8346 43.5216 20.3411 44.0136 19.9838 44.6242C19.6265 45.2349 19.4479 45.9134 19.4479 46.6597C19.4479 47.7793 19.8477 48.7377 20.6474 49.5349C21.4471 50.3321 22.4084 50.7308 23.5314 50.7308C24.6544 50.7308 25.6157 50.3321 26.4154 49.5349C27.2151 48.7377 27.6149 47.7793 27.6149 46.6597C27.6149 46.3883 27.5894 46.1169 27.5384 45.8455C27.4873 45.5741 27.4108 45.3197 27.3087 45.0822C27.2066 44.8447 27.079 44.6157 26.9258 44.3952C26.7727 44.1747 26.6026 43.9712 26.4154 43.7846C26.2282 43.598 26.0241 43.4284 25.8029 43.2757C25.5817 43.123 25.352 42.9958 25.1138 42.894C24.8756 42.7923 24.6203 42.7159 24.3481 42.665C24.0759 42.6142 23.8036 42.5887 23.5314 42.5887Z" fill="#F49613"/>
</svg>
