<svg width="45" height="45" viewBox="0 0 45 45" fill="none" xmlns="http://www.w3.org/2000/svg">
<path d="M39.4258 0H7.38337C6.64676 0 6.01897 0.146484 5.5 0.439453C4.98103 0.732422 4.61272 1.09131 4.39509 1.51611C4.17745 1.94092 4.06864 2.40234 4.06864 2.90039V8.48145H2.31083C1.87556 8.48145 1.50725 8.62061 1.20592 8.89893C0.904576 9.17725 0.753906 9.50684 0.753906 9.8877C0.753906 10.1221 0.820871 10.3491 0.954799 10.5688C1.08873 10.7886 1.28125 10.957 1.53237 11.0742C1.78348 11.1914 2.04297 11.25 2.31083 11.25H4.06864V16.9189H2.4615C2.19364 16.9189 1.93415 16.9775 1.68304 17.0947C1.43192 17.2119 1.2394 17.3804 1.10547 17.6001C0.97154 17.8198 0.904576 18.0469 0.904576 18.2812C0.904576 18.6621 1.05525 18.9844 1.35658 19.248C1.65792 19.5117 2.02623 19.6436 2.4615 19.6436H4.06864V25.3564H2.41127C2.21038 25.3564 2.01786 25.3931 1.83371 25.4663C1.64955 25.5396 1.48214 25.6348 1.33147 25.752C1.1808 25.8691 1.06362 26.0156 0.979911 26.1914C0.896205 26.3672 0.854353 26.543 0.854353 26.7188C0.854353 27.0996 1.01339 27.4292 1.33147 27.7075C1.64955 27.9858 2.00949 28.125 2.41127 28.125H4.06864V33.75H2.41127C2.27734 33.75 2.14342 33.7646 2.00949 33.7939C1.87556 33.8232 1.75 33.8672 1.63281 33.9258C1.51562 33.9844 1.40681 34.0576 1.30636 34.1455C1.20592 34.2334 1.12221 34.3286 1.05525 34.4312C0.988281 34.5337 0.938058 34.6436 0.904576 34.7607C0.871094 34.8779 0.854353 34.9951 0.854353 35.1123C0.854353 35.4932 1.01339 35.8228 1.33147 36.1011C1.64955 36.3794 2.00949 36.5186 2.41127 36.5186H4.06864V42.1875C4.06864 43.2129 4.41183 43.938 5.09821 44.3628C5.7846 44.7876 6.52958 45 7.33315 45H39.4258C40.7651 45 41.9035 44.5898 42.841 43.7695C43.7785 42.9492 44.2472 41.9531 44.2472 40.7812V4.21875C44.2472 3.04688 43.7785 2.05078 42.841 1.23047C41.9035 0.410156 40.7651 0 39.4258 0ZM7.28292 42.1875V36.5186H8.94029C9.37556 36.5186 9.75223 36.3794 10.0703 36.1011C10.3884 35.8228 10.5474 35.4932 10.5474 35.1123C10.5474 34.9365 10.5056 34.7607 10.4219 34.585C10.3382 34.4092 10.221 34.2627 10.0703 34.1455C9.91964 34.0283 9.75223 33.9331 9.56808 33.8599C9.38393 33.7866 9.17466 33.75 8.94029 33.75H7.28292V28.125H8.94029C9.24163 28.125 9.50949 28.0591 9.74386 27.9272C9.97824 27.7954 10.1708 27.627 10.3214 27.4219C10.4721 27.2168 10.5474 26.9824 10.5474 26.7188C10.5474 26.3379 10.3884 26.0156 10.0703 25.752C9.75223 25.4883 9.37556 25.3564 8.94029 25.3564H7.28292V19.6436H8.99051C9.29185 19.6436 9.55971 19.585 9.79408 19.4678C10.0285 19.3506 10.2126 19.1895 10.3465 18.9844C10.4805 18.7793 10.5474 18.5449 10.5474 18.2812C10.5474 18.1055 10.5139 17.9297 10.447 17.7539C10.38 17.5781 10.2712 17.4316 10.1205 17.3145C9.96986 17.1973 9.80245 17.1021 9.6183 17.0288C9.43415 16.9556 9.22489 16.9189 8.99051 16.9189H7.28292V11.25H8.83984C9.27511 11.25 9.64341 11.1182 9.94475 10.8545C10.2461 10.5908 10.3968 10.2686 10.3968 9.8877C10.3968 9.50684 10.2461 9.17725 9.94475 8.89893C9.64341 8.62061 9.27511 8.48145 8.83984 8.48145H7.28292V2.8125H32.9972V42.1875H7.28292ZM41.0329 40.7812C41.0329 41.1621 40.8739 41.4917 40.5558 41.77C40.2377 42.0483 39.861 42.1875 39.4258 42.1875H36.2115V2.8125H39.4258C39.861 2.8125 40.2377 2.95166 40.5558 3.22998C40.8739 3.5083 41.0329 3.83789 41.0329 4.21875V40.7812Z" fill="#FBC11D"/>
</svg>
