<svg width="41" height="41" viewBox="0 0 41 41" fill="none" xmlns="http://www.w3.org/2000/svg">
<path d="M22.8521 20.4902L40.5136 2.82188C40.8252 2.50894 40.9999 2.08535 40.9997 1.64388C40.9994 1.20241 40.824 0.779047 40.512 0.466524C39.8875 -0.154463 38.7876 -0.157599 38.1568 0.46966L20.5 18.138L2.83693 0.464956C2.2093 -0.154463 1.10937 -0.151327 0.484882 0.468092C0.329876 0.622387 0.207171 0.805992 0.123927 1.00819C0.0406829 1.21039 -0.00143277 1.42713 3.71935e-05 1.64577C3.71935e-05 2.09112 0.172636 2.50825 0.484882 2.81718L18.1464 20.4886L0.486451 38.1616C0.174809 38.4751 0.000286743 38.8992 0.00116921 39.3411C0.00205168 39.7829 0.178268 40.2064 0.491158 40.5186C0.79399 40.8181 1.22235 40.9906 1.66483 40.9906H1.67424C2.11829 40.989 2.54665 40.815 2.8432 40.5123L20.5 22.844L38.1631 40.517C38.4754 40.8275 38.8927 41 39.3352 41C39.554 41.0006 39.7708 40.958 39.973 40.8746C40.1753 40.7912 40.3591 40.6687 40.5138 40.5141C40.6685 40.3594 40.7911 40.1758 40.8745 39.9736C40.958 39.7715 41.0006 39.5549 41 39.3362C41 38.8924 40.8274 38.4737 40.5136 38.1648L22.8521 20.4902Z" fill="white"/>
</svg>
