<svg width="19" height="19" viewBox="0 0 19 19" fill="none" xmlns="http://www.w3.org/2000/svg">
<path fill-rule="evenodd" clip-rule="evenodd" d="M5.8611 2.54248V4.73683L4.41031 3.34426V0.756052L5.13571 0.0527344H18.1929L18.9182 0.756052V1.43968L18.9473 1.45937V15.9336L18.425 16.5807L11.171 19.0001L10.2425 18.339V16.9324H5.13571L4.41031 16.229V13.683L5.8611 12.2764V15.5257H10.2425V3.86471L10.7213 3.21766L15.9934 1.45937H5.8611V2.54248ZM11.6933 17.3262L17.4965 15.4413V2.47215L11.6933 4.35704V17.3262ZM2.23412 9.16773H9.44457V7.76109H2.29215L4.61342 5.51048L3.58336 4.52583L-0.000102997 7.98615V8.98486L3.61238 12.4733L4.62793 11.4887L2.23412 9.16773Z" fill="black"/>
</svg>
