<svg width="50" height="44" viewBox="0 0 50 44" fill="none" xmlns="http://www.w3.org/2000/svg">
<path d="M47.9539 9.1853C47.1914 7.44431 46.092 5.86665 44.7171 4.54062C43.3413 3.21064 41.7191 2.15372 39.9388 1.42734C38.0928 0.671144 36.1128 0.284077 34.1138 0.288614C31.3094 0.288614 28.5732 1.0459 26.1954 2.47632C25.6266 2.8185 25.0862 3.19434 24.5742 3.60384C24.0623 3.19434 23.5219 2.8185 22.953 2.47632C20.5752 1.0459 17.8391 0.288614 15.0346 0.288614C13.0152 0.288614 11.0584 0.670061 9.20965 1.42734C7.42346 2.15658 5.81362 3.20556 4.43132 4.54062C3.05469 5.86515 1.955 7.44319 1.19458 9.1853C0.403882 10.9972 0 12.9212 0 14.9014C0 16.7694 0.386817 18.7159 1.15476 20.696C1.79756 22.3508 2.71909 24.0673 3.89661 25.8007C5.76243 28.5437 8.32793 31.4046 11.5135 34.3047C16.7924 39.112 22.0201 42.4329 22.242 42.5675L23.5901 43.4202C24.1874 43.796 24.9554 43.796 25.5526 43.4202L26.9008 42.5675C27.1227 42.4273 32.3447 39.112 37.6293 34.3047C40.8148 31.4046 43.3803 28.5437 45.2462 25.8007C46.4237 24.0673 47.3509 22.3508 47.988 20.696C48.7559 18.7159 49.1428 16.7694 49.1428 14.9014C49.1485 12.9212 48.7446 10.9972 47.9539 9.1853ZM24.5742 38.983C24.5742 38.983 44.5019 18.1676 44.5019 6.88123C44.5019 1.16514 9.11863 4.55184 15.0346 4.55184C19.1929 4.55184 22.7994 6.84052 24.5742 10.1838C26.349 6.84052 12.0311 13.1595 16.1894 13.1595C22.1054 13.1595 26.9008 17.7929 26.9008 23.509C26.9008 34.7953 24.5742 38.983 24.5742 38.983Z" fill="#EB5757"/>
</svg>
