<svg width="18" height="13" viewBox="0 0 18 13" fill="none" xmlns="http://www.w3.org/2000/svg">
<path d="M17.5645 3.35425C17.2852 2.88161 16.8825 2.4533 16.379 2.09331C15.875 1.73225 15.2808 1.44532 14.6288 1.24812C13.9526 1.04282 13.2274 0.937744 12.4952 0.938976C11.468 0.938976 10.4658 1.14456 9.59485 1.53289C9.38649 1.62579 9.18855 1.72782 9.00103 1.83899C8.81351 1.72782 8.61557 1.62579 8.40721 1.53289C7.53628 1.14456 6.53408 0.938976 5.50688 0.938976C4.76721 0.938976 4.05046 1.04253 3.3733 1.24812C2.71906 1.44609 2.12941 1.73087 1.6231 2.09331C1.11887 2.45289 0.716078 2.8813 0.43755 3.35425C0.147934 3.84613 0 4.36848 0 4.90605C0 5.41317 0.141683 5.9416 0.422965 6.47918C0.658409 6.92842 0.995947 7.39442 1.42725 7.86499C2.11066 8.60967 3.05035 9.38634 4.21715 10.1737C6.1507 11.4788 8.06551 12.3803 8.14677 12.4168L8.64057 12.6483C8.85935 12.7504 9.14063 12.7504 9.35941 12.6483L9.85321 12.4168C9.93447 12.3788 11.8472 11.4788 13.7828 10.1737C14.9496 9.38634 15.8893 8.60967 16.5727 7.86499C17.004 7.39442 17.3437 6.92842 17.577 6.47918C17.8583 5.9416 18 5.41317 18 4.90605C18.0021 4.36848 17.8541 3.84613 17.5645 3.35425ZM9.00103 11.4437C9.00103 11.4437 16.3001 5.79275 16.3001 2.72874C16.3001 1.17693 3.33997 2.09636 5.50688 2.09636C7.02997 2.09636 8.35096 2.71769 9.00103 3.62532C9.65111 2.71769 4.40676 4.43315 5.92985 4.43315C8.09676 4.43315 9.85321 5.69104 9.85321 7.24285C9.85321 10.3069 9.00103 11.4437 9.00103 11.4437Z" fill="#EB5757"/>
</svg>
