<svg width="18" height="14" viewBox="0 0 18 14" fill="none" xmlns="http://www.w3.org/2000/svg">
<path d="M17.5645 2.86902C17.2852 2.30759 16.8825 1.79882 16.379 1.3712C15.875 0.94231 15.2808 0.601475 14.6288 0.367231C13.9526 0.123371 13.2274 -0.0014504 12.4952 1.27149e-05C11.468 1.27149e-05 10.4658 0.244222 9.59485 0.705507C9.38649 0.815853 9.18855 0.937054 9.00103 1.06911C8.81351 0.937054 8.61557 0.815853 8.40721 0.705507C7.53628 0.244222 6.53408 1.27149e-05 5.50688 1.27149e-05C4.76721 1.27149e-05 4.05046 0.123022 3.3733 0.367231C2.71906 0.602396 2.12941 0.940672 1.6231 1.3712C1.11887 1.79834 0.716078 2.30723 0.43755 2.86902C0.147934 3.45332 0 4.07379 0 4.71235C0 5.31473 0.141683 5.94244 0.422965 6.58101C0.658409 7.11465 0.995947 7.66819 1.42725 8.22716C2.11066 9.11174 3.05035 10.0343 4.21715 10.9695C6.1507 12.5198 8.06551 13.5907 8.14677 13.6341L8.64057 13.9091C8.85935 14.0303 9.14063 14.0303 9.35941 13.9091L9.85321 13.6341C9.93447 13.5889 11.8472 12.5198 13.7828 10.9695C14.9496 10.0343 15.8893 9.11174 16.5727 8.22716C17.004 7.66819 17.3437 7.11465 17.577 6.58101C17.8583 5.94244 18 5.31473 18 4.71235C18.0021 4.07379 17.8541 3.45332 17.5645 2.86902ZM9.00103 12.4782C9.00103 12.4782 1.58351 8.35198 1.58351 4.71235C1.58351 2.86902 3.33997 1.37482 5.50688 1.37482C7.02997 1.37482 8.35096 2.11288 9.00103 3.19102C9.65111 2.11288 10.9721 1.37482 12.4952 1.37482C14.6621 1.37482 16.4185 2.86902 16.4185 4.71235C16.4185 8.35198 9.00103 12.4782 9.00103 12.4782Z" fill="white"/>
</svg>
